<?xml version="1.0" encoding="UTF-8"?>
<svg width="272px" height="120px" viewBox="0 0 272 120" version="1.1" xmlns="http://www.w3.org/2000/svg" xmlns:xlink="http://www.w3.org/1999/xlink">
    <title>plus</title>
    <defs>
        <path d="M142,50 L168,50 L168,62 L142,62 L142,88 L130,88 L130,62 L104,62 L104,50 L130,50 L130,24 L142,24 L142,50 Z" id="path-1"></path>
        <filter x="-1.6%" y="-1.6%" width="103.1%" height="106.2%" filterUnits="objectBoundingBox" id="filter-2">
            <feOffset dx="0" dy="2" in="SourceAlpha" result="shadowOffsetOuter1"></feOffset>
            <feComposite in="shadowOffsetOuter1" in2="SourceAlpha" operator="out" result="shadowOffsetOuter1"></feComposite>
            <feColorMatrix values="0 0 0 0 1   0 0 0 0 1   0 0 0 0 1  0 0 0 0.2 0" type="matrix" in="shadowOffsetOuter1"></feColorMatrix>
        </filter>
        <filter x="-1.6%" y="-1.6%" width="103.1%" height="106.2%" filterUnits="objectBoundingBox" id="filter-3">
            <feOffset dx="0" dy="2" in="SourceAlpha" result="shadowOffsetInner1"></feOffset>
            <feComposite in="shadowOffsetInner1" in2="SourceAlpha" operator="arithmetic" k2="-1" k3="1" result="shadowInnerInner1"></feComposite>
            <feColorMatrix values="0 0 0 0 0   0 0 0 0 0   0 0 0 0 0  0 0 0 0.1 0" type="matrix" in="shadowInnerInner1"></feColorMatrix>
        </filter>
    </defs>
    <g id="plus" stroke="none" stroke-width="1" fill="none" fill-rule="evenodd">
        <g id="Group">
            <path d="M268,112 L268,116 L264,116 L264,120 L8,120 L8,116 L4,116 L4,112 L0,112 L0,16 L4,16 L4,12 L8,12 L8,8 L264,8 L264,12 L268,12 L268,16 L272,16 L272,112 L268,112 Z" id="Rectangle-Copy" fill="#08D550"></path>
            <path d="M268,104 L268,108 L264,108 L264,112 L8,112 L8,108 L4,108 L4,104 L0,104 L0,8 L4,8 L4,4 L8,4 L8,0 L264,0 L264,4 L268,4 L268,8 L272,8 L272,104 L268,104 Z" id="Rectangle" fill="#0AEE5A"></path>
            <g id="Rectangle-2-Copy">
                <use fill="black" fill-opacity="1" filter="url(#filter-2)" xlink:href="#path-1"></use>
                <use fill-opacity="0.1" fill="#000000" fill-rule="evenodd" xlink:href="#path-1"></use>
                <use fill="black" fill-opacity="1" filter="url(#filter-3)" xlink:href="#path-1"></use>
            </g>
        </g>
    </g>
</svg>